name analog
datacolumns 19
datarows 28
range 0.0 0.0135
endheader
time	ground_force_vx	ground_force_vy	ground_force_vz	ground_force_px	ground_force_py	ground_force_pz	l_ground_force_vx	l_ground_force_vy	l_ground_force_vz	l_ground_force_px	l_ground_force_py	l_ground_force_pz	ground_torque_x	ground_torque_y	ground_torque_z	l_ground_torque_x	l_ground_torque_y	l_ground_torque_z
0.0	-0.0	-0.0	-0.0	-18.23051071166992	32.25972366333008	-362.5908508300781	16.289051055908203	-34.26881408691406	-620.6415405273438	-0.0	-0.0	-0.0	-0.0	-0.0	-0.0	189837.578125	-32099.814453125	6447.08056640625
0.0005	-0.0	-0.0	-0.0	-18.482297897338867	32.469764709472656	-363.4844055175781	16.37320327758789	-34.10890197753906	-620.508544921875	-0.0	-0.0	-0.0	-0.0	-0.0	-0.0	189935.640625	-32186.423828125	6358.27001953125
0.001	-0.0	-0.0	-0.0	-18.64015769958496	32.071285247802734	-363.4650573730469	16.788013458251953	-34.19718170166016	-620.3104858398438	-0.0	-0.0	-0.0	-0.0	-0.0	-0.0	190043.84375	-32010.90625	6386.62646484375
0.0015	-0.0	-0.0	-0.0	-18.493377685546875	32.32316207885742	-362.962890625	16.749652862548828	-34.252201080322266	-619.896240234375	-0.0	-0.0	-0.0	-0.0	-0.0	-0.0	190194.875	-32398.216796875	6553.38525390625
0.002	-0.0	-0.0	-0.0	-17.90833282470703	32.29221725463867	-363.77532958984375	16.80516242980957	-33.948638916015625	-621.0534057617188	-0.0	-0.0	-0.0	-0.0	-0.0	-0.0	189976.796875	-32489.27734375	6445.98583984375
0.0025	-0.0	-0.0	-0.0	-18.614002227783203	31.792354583740234	-361.7325439453125	16.8053035736084	-34.20277786254883	-620.8568725585938	-0.0	-0.0	-0.0	-0.0	-0.0	-0.0	190510.71875	-32431.11328125	6525.74853515625
0.003	-0.0	-0.0	-0.0	-18.48200035095215	32.24979782104492	-363.5310668945313	17.104671478271484	-33.765621185302734	-620.7916259765625	-0.0	-0.0	-0.0	-0.0	-0.0	-0.0	190271.734375	-32552.529296875	6403.4384765625
0.0035	-0.0	-0.0	-0.0	-18.30352020263672	32.45882034301758	-363.59283447265625	16.759883880615234	-33.788021087646484	-622.0587158203125	-0.0	-0.0	-0.0	-0.0	-0.0	-0.0	190352.078125	-32538.794921875	6475.59912109375
0.004	-0.0	-0.0	-0.0	-18.525192260742188	32.63444137573242	-364.1788940429688	16.815488815307617	-33.971229553222656	-620.7916259765625	-0.0	-0.0	-0.0	-0.0	-0.0	-0.0	190468.875	-32641.640625	6464.6123046875
0.0045000000000000005	-0.0	-0.0	-0.0	-18.762435913085938	32.42597579956055	-364.0681762695313	16.976423263549805	-33.796905517578125	-621.6549682617188	-0.0	-0.0	-0.0	-0.0	-0.0	-0.0	190339.953125	-32595.802734375	6483.53076171875
0.005	-0.0	-0.0	-0.0	-18.198944091796875	32.621726989746094	-363.0846252441406	17.226177215576172	-33.53877639770508	-623.74169921875	-0.0	-0.0	-0.0	-0.0	-0.0	-0.0	190801.359375	-32840.25390625	6613.3681640625
0.0055	-0.0	-0.0	-0.0	-18.926212310791016	32.79998779296875	-366.6007690429688	17.354888916015625	-33.72274398803711	-623.077880859375	-0.0	-0.0	-0.0	-0.0	-0.0	-0.0	190774.765625	-32833.40625	6535.287109375
0.006	-0.0	-0.0	-0.0	-18.347230911254883	32.88792419433594	-367.2427673339844	17.201675415039062	-33.795040130615234	-623.0460205078125	-0.0	-0.0	-0.0	-0.0	-0.0	-0.0	191366.8125	-32963.69140625	6624.1328125
0.006500000000000001	-0.0	-0.0	-0.0	-18.58673667907715	32.7990837097168	-367.54498291015625	17.33081817626953	-33.71471405029297	-624.4420166015625	-0.0	-0.0	-0.0	-0.0	-0.0	-0.0	191087.390625	-32934.94921875	6478.5625
0.007	-0.0	-0.0	-0.0	-18.956523895263672	32.3249397277832	-367.1315002441406	17.298603057861328	-33.93149185180664	-625.1412353515625	-0.0	-0.0	-0.0	-0.0	-0.0	-0.0	191183.984375	-32978.515625	6691.67138671875
0.0075	-0.0	-0.0	-0.0	-18.45186424255371	32.5772590637207	-367.6603393554688	17.20107078552246	-33.79539489746094	-624.1854858398438	-0.0	-0.0	-0.0	-0.0	-0.0	-0.0	191470.265625	-33232.87890625	6491.78125
0.008	-0.0	-0.0	-0.0	-18.793758392333984	32.978485107421875	-369.2500915527344	17.694427490234375	-33.94049453735352	-624.569580078125	-0.0	-0.0	-0.0	-0.0	-0.0	-0.0	191243.375	-33236.7109375	6416.71630859375
0.0085	-0.0	-0.0	-0.0	-18.377365112304688	33.305259704589844	-370.19342041015625	17.460166931152344	-33.91552734375	-624.5951538085938	-0.0	-0.0	-0.0	-0.0	-0.0	-0.0	191741.640625	-33398.98828125	6502.38037109375
0.009000000000000001	-0.0	-0.0	-0.0	-18.748929977416992	33.08209228515625	-369.7794189453125	17.282791137695312	-33.7546272277832	-625.8041381835938	-0.0	-0.0	-0.0	-0.0	-0.0	-0.0	191606.28125	-33504.18359375	6510.71630859375
0.0095	-0.0	-0.0	-0.0	-18.9725399017334	32.99288558959961	-371.4241333007813	17.450267791748047	-33.62491989135742	-623.81005859375	-0.0	-0.0	-0.0	-0.0	-0.0	-0.0	191687.015625	-33461.890625	6500.29443359375
0.01	-0.0	-0.0	-0.0	-19.105640411376957	33.60382461547852	-370.7168273925781	17.50738525390625	-33.82720947265625	-624.3447875976562	-0.0	-0.0	-0.0	-0.0	-0.0	-0.0	191896.46875	-33506.37109375	6592.72265625
0.0105	-0.0	-0.0	-0.0	-18.615909576416016	33.483970642089844	-371.8409118652344	17.57527732849121	-33.926025390625	-625.96728515625	-0.0	-0.0	-0.0	-0.0	-0.0	-0.0	191704.875	-33560.3125	6495.07958984375
0.011	-0.0	-0.0	-0.0	-18.912628173828125	33.544334411621094	-372.4808044433594	17.048032760620117	-34.23319625854492	-625.9493408203125	-0.0	-0.0	-0.0	-0.0	-0.0	-0.0	191927.8125	-33654.703125	6489.447265625
0.0115	-0.0	-0.0	-0.0	-19.088376998901367	33.527442932128906	-372.7761535644531	17.533708572387695	-33.40104293823242	-627.2422485351562	-0.0	-0.0	-0.0	-0.0	-0.0	-0.0	191948.765625	-33736.6484375	6501.873046875
0.012	-0.0	-0.0	-0.0	-19.205869674682617	33.245643615722656	-373.493896484375	17.40275764465332	-33.79645538330078	-624.5262451171875	-0.0	-0.0	-0.0	-0.0	-0.0	-0.0	191868.25	-33635.6796875	6465.388671875
0.0125	-0.0	-0.0	-0.0	-19.326637268066406	33.33477020263672	-372.9580078125	17.136564254760742	-33.57755661010742	-625.6796875	-0.0	-0.0	-0.0	-0.0	-0.0	-0.0	191604.515625	-33381.89453125	6387.771484375
0.013000000000000001	-0.0	-0.0	-0.0	-19.74775505065918	33.48456573486328	-374.0323791503906	17.63810920715332	-33.501163482666016	-624.8607177734375	-0.0	-0.0	-0.0	-0.0	-0.0	-0.0	191522.40625	-33663.01953125	6425.74658203125
0.0135	-0.0	-0.0	-0.0	-19.10522079467773	33.79875946044922	-372.9414978027344	17.4178409576416	-33.53470993041992	-623.6448974609375	-0.0	-0.0	-0.0	-0.0	-0.0	-0.0	191644.265625	-33589.14453125	6371.4296875
